<svg width="214" height="209" viewBox="0 0 214 209" fill="none" xmlns="http://www.w3.org/2000/svg">
<circle cx="107" cy="105" r="96" fill="black"/>
<circle cx="107.5" cy="105.5" r="81.5" fill="#ACACAD"/>
<circle cx="107" cy="105" r="73" fill="#8EDE28"/>
<mask id="mask0" mask-type="alpha" maskUnits="userSpaceOnUse" x="34" y="32" width="146" height="146">
<circle cx="107" cy="105" r="73" fill="#008515"/>
</mask>
<g mask="url(#mask0)">
<path d="M83.7775 106.684L84.9221 105.163L83.7601 103.655L17.8589 18.131L13.336 12.2614L13.3787 19.6709L14.3685 191.457L14.4112 198.866L18.8662 192.946L83.7775 106.684Z" fill="#7E787A" stroke="black" stroke-width="5"/>
<path d="M130.439 103.696L129.356 105.165L130.426 106.644L192.746 192.815L197.237 199.025L197.272 191.361L198.054 19.5782L198.089 11.9146L193.542 18.0839L130.439 103.696Z" fill="#7E787A" stroke="black" stroke-width="5"/>
</g>
<path d="M107.5 208.5C114.006 208.5 119.5 204.354 119.5 199C119.5 193.646 114.006 189.5 107.5 189.5C100.994 189.5 95.5 193.646 95.5 199C95.5 204.354 100.994 208.5 107.5 208.5Z" fill="#757575" stroke="black"/>
<path d="M107.5 206.25C109.893 206.25 112.069 205.566 113.655 204.447C115.239 203.328 116.25 201.76 116.25 200C116.25 198.24 115.239 196.672 113.655 195.553C112.069 194.434 109.893 193.75 107.5 193.75C105.107 193.75 102.931 194.434 101.345 195.553C99.7609 196.672 98.75 198.24 98.75 200C98.75 201.76 99.7609 203.328 101.345 204.447C102.931 205.566 105.107 206.25 107.5 206.25Z" fill="#06DD43" stroke="black" stroke-width="0.5"/>
<path d="M1.58675 104.639C1.63583 111.145 5.82324 116.608 11.177 116.567C16.5307 116.527 20.6353 111.002 20.5862 104.496C20.5371 97.9897 16.3497 92.5275 10.996 92.5679C5.64222 92.6083 1.53767 98.133 1.58675 104.639Z" fill="#757575" stroke="black"/>
<path d="M3.83668 104.622C3.85473 107.015 4.55531 109.186 5.68617 110.763C6.81656 112.339 8.39267 113.338 10.1525 113.325C11.9123 113.312 13.4732 112.289 14.5797 110.696C15.6866 109.102 16.3544 106.921 16.3363 104.528C16.3183 102.135 15.6177 99.9638 14.4868 98.3872C13.3564 96.8111 11.7803 95.8121 10.0205 95.8254C8.26068 95.8386 6.69981 96.8614 5.59332 98.4542C4.48638 100.048 3.81863 102.23 3.83668 104.622Z" fill="#06DD43" stroke="black" stroke-width="0.5"/>
<path d="M212.586 104.639C212.537 111.145 208.35 116.608 202.996 116.567C197.642 116.527 193.538 111.002 193.587 104.496C193.636 97.9897 197.823 92.5275 203.177 92.5679C208.531 92.6083 212.635 98.133 212.586 104.639Z" fill="#757575" stroke="black"/>
<path d="M210.336 104.622C210.318 107.015 209.618 109.186 208.487 110.763C207.356 112.339 205.78 113.338 204.02 113.325C202.261 113.312 200.7 112.289 199.593 110.696C198.486 109.102 197.819 106.921 197.837 104.528C197.855 102.135 198.555 99.9638 199.686 98.3872C200.816 96.8111 202.393 95.8121 204.152 95.8254C205.912 95.8386 207.473 96.8614 208.58 98.4542C209.687 100.048 210.354 102.23 210.336 104.622Z" fill="#06DD43" stroke="black" stroke-width="0.5"/>
<path d="M107.5 0.5C114.006 0.5 119.5 4.6461 119.5 10C119.5 15.3539 114.006 19.5 107.5 19.5C100.994 19.5 95.5 15.3539 95.5 10C95.5 4.6461 100.994 0.5 107.5 0.5Z" fill="#757575" stroke="black"/>
<path d="M107.5 2.75C109.893 2.75 112.069 3.43418 113.655 4.55312C115.239 5.67159 116.25 7.24012 116.25 9C116.25 10.7599 115.239 12.3284 113.655 13.4469C112.069 14.5658 109.893 15.25 107.5 15.25C105.107 15.25 102.931 14.5658 101.345 13.4469C99.7609 12.3284 98.75 10.7599 98.75 9C98.75 7.24012 99.7609 5.67159 101.345 4.55312C102.931 3.43418 105.107 2.75 107.5 2.75Z" fill="#06DD43" stroke="black" stroke-width="0.5"/>
</svg>
